<mxfile host="65bd71144e">
    <diagram id="-lICfcMq23BuJoMhSjsL" name="steps">
        <mxGraphModel dx="3973" dy="524" grid="1" gridSize="10" guides="1" tooltips="1" connect="1" arrows="1" fold="1" page="0" pageScale="1" pageWidth="1169" pageHeight="827" math="0" shadow="0">
            <root>
                <mxCell id="0"/>
                <mxCell id="1" parent="0"/>
                <mxCell id="4" value="" style="edgeStyle=none;html=1;fontColor=#FFFFFF;" parent="1" source="2" target="3" edge="1">
                    <mxGeometry relative="1" as="geometry"/>
                </mxCell>
                <mxCell id="2" value="" style="strokeWidth=2;html=1;shape=mxgraph.flowchart.start_2;whiteSpace=wrap;fontColor=#FFFFFF;" parent="1" vertex="1">
                    <mxGeometry x="130" y="60" width="100" height="100" as="geometry"/>
                </mxCell>
                <mxCell id="6" value="" style="edgeStyle=none;html=1;fontColor=#FFFFFF;" parent="1" source="3" target="5" edge="1">
                    <mxGeometry relative="1" as="geometry"/>
                </mxCell>
                <mxCell id="15" value="" style="edgeStyle=none;html=1;fontColor=#FFFFFF;" parent="1" source="3" target="2" edge="1">
                    <mxGeometry relative="1" as="geometry"/>
                </mxCell>
                <mxCell id="16" value="" style="edgeStyle=none;html=1;fontColor=#FFFFFF;" parent="1" source="3" target="2" edge="1">
                    <mxGeometry relative="1" as="geometry"/>
                </mxCell>
                <mxCell id="61" style="edgeStyle=none;html=1;fontColor=#FFFFFF;" parent="1" source="3" target="60" edge="1">
                    <mxGeometry relative="1" as="geometry"/>
                </mxCell>
                <mxCell id="70" value="include" style="edgeLabel;html=1;align=center;verticalAlign=middle;resizable=0;points=[];fontColor=#FFFFFF;" parent="61" vertex="1" connectable="0">
                    <mxGeometry x="0.2849" y="-5" relative="1" as="geometry">
                        <mxPoint x="11" y="-4" as="offset"/>
                    </mxGeometry>
                </mxCell>
                <mxCell id="3" value="&quot;Books&quot; post type =&amp;gt; Title, Author, Publication Year&lt;br&gt;+ Categories =&amp;gt; hierarchical taxonomy" style="whiteSpace=wrap;html=1;strokeWidth=2;fontColor=#FFFFFF;" parent="1" vertex="1">
                    <mxGeometry x="-10" y="220" width="380" height="140" as="geometry"/>
                </mxCell>
                <mxCell id="8" value="" style="edgeStyle=none;html=1;fontColor=#FFFFFF;" parent="1" source="5" target="7" edge="1">
                    <mxGeometry relative="1" as="geometry"/>
                </mxCell>
                <mxCell id="75" style="edgeStyle=none;html=1;fontColor=#FFFFFF;" parent="1" source="5" target="74" edge="1">
                    <mxGeometry relative="1" as="geometry"/>
                </mxCell>
                <mxCell id="77" style="edgeStyle=none;html=1;fontColor=#FFFFFF;" parent="1" source="5" target="76" edge="1">
                    <mxGeometry relative="1" as="geometry"/>
                </mxCell>
                <mxCell id="121" style="html=1;fontColor=#FFFFFF;" parent="1" source="5" target="122" edge="1">
                    <mxGeometry relative="1" as="geometry">
                        <mxPoint x="-424.1666666666665" y="800" as="targetPoint"/>
                    </mxGeometry>
                </mxCell>
                <mxCell id="5" value="[book_display] =&amp;gt; display the books by category(filter bar via AJAX)&lt;br&gt;attr(categories) =&amp;gt; comma-separated list of categories to display" style="whiteSpace=wrap;html=1;strokeWidth=2;fontColor=#FFFFFF;" parent="1" vertex="1">
                    <mxGeometry x="-10" y="440" width="380" height="140" as="geometry"/>
                </mxCell>
                <mxCell id="33" style="edgeStyle=none;html=1;fontColor=#FFFFFF;" parent="1" source="7" target="32" edge="1">
                    <mxGeometry relative="1" as="geometry"/>
                </mxCell>
                <mxCell id="7" value="data validation" style="whiteSpace=wrap;html=1;strokeWidth=2;fontColor=#FFFFFF;" parent="1" vertex="1">
                    <mxGeometry x="-10" y="670" width="380" height="120" as="geometry"/>
                </mxCell>
                <mxCell id="35" style="edgeStyle=none;html=1;fontColor=#FFFFFF;" parent="1" source="32" target="34" edge="1">
                    <mxGeometry relative="1" as="geometry"/>
                </mxCell>
                <mxCell id="32" value="escaping" style="whiteSpace=wrap;html=1;strokeWidth=2;labelBackgroundColor=none;fontColor=#FFFFFF;" parent="1" vertex="1">
                    <mxGeometry x="-10" y="920" width="380" height="120" as="geometry"/>
                </mxCell>
                <mxCell id="34" value="sanitization" style="whiteSpace=wrap;html=1;strokeWidth=2;labelBackgroundColor=none;fontColor=#FFFFFF;" parent="1" vertex="1">
                    <mxGeometry x="-10" y="1150" width="380" height="120" as="geometry"/>
                </mxCell>
                <mxCell id="63" style="edgeStyle=none;html=1;fontColor=#FFFFFF;" parent="1" source="60" target="62" edge="1">
                    <mxGeometry relative="1" as="geometry"/>
                </mxCell>
                <mxCell id="60" value="Register &quot;Books&quot; custom post type" style="whiteSpace=wrap;html=1;strokeWidth=2;labelBackgroundColor=none;fillColor=#008a00;strokeColor=#005700;fontColor=#ffffff;" parent="1" vertex="1">
                    <mxGeometry x="-380" y="260" width="240" height="60" as="geometry"/>
                </mxCell>
                <mxCell id="65" style="edgeStyle=none;html=1;fontColor=#FFFFFF;" parent="1" source="62" target="64" edge="1">
                    <mxGeometry relative="1" as="geometry"/>
                </mxCell>
                <mxCell id="71" value="Extend" style="edgeLabel;html=1;align=center;verticalAlign=middle;resizable=0;points=[];fontColor=#FFFFFF;" parent="65" vertex="1" connectable="0">
                    <mxGeometry x="-0.279" y="4" relative="1" as="geometry">
                        <mxPoint x="4" y="-2" as="offset"/>
                    </mxGeometry>
                </mxCell>
                <mxCell id="67" style="edgeStyle=none;html=1;fontColor=#FFFFFF;" parent="1" source="62" target="66" edge="1">
                    <mxGeometry relative="1" as="geometry"/>
                </mxCell>
                <mxCell id="135" value="" style="edgeStyle=none;html=1;fontColor=#FFFFFF;" parent="1" source="62" target="134" edge="1">
                    <mxGeometry relative="1" as="geometry"/>
                </mxCell>
                <mxCell id="62" value="Manage specific supports [title, author]" style="whiteSpace=wrap;html=1;strokeWidth=2;labelBackgroundColor=none;fillColor=#008a00;strokeColor=#005700;fontColor=#ffffff;" parent="1" vertex="1">
                    <mxGeometry x="-775" y="260" width="340" height="60" as="geometry"/>
                </mxCell>
                <mxCell id="133" style="edgeStyle=none;html=1;fontColor=#FFFFFF;" parent="1" source="64" target="132" edge="1">
                    <mxGeometry relative="1" as="geometry"/>
                </mxCell>
                <mxCell id="64" value="Add Thumbnail" style="whiteSpace=wrap;html=1;strokeWidth=2;labelBackgroundColor=none;fillColor=#008a00;strokeColor=#005700;fontColor=#ffffff;" parent="1" vertex="1">
                    <mxGeometry x="-540" y="150" width="160" height="60" as="geometry"/>
                </mxCell>
                <mxCell id="69" style="edgeStyle=none;html=1;fontColor=#FFFFFF;" parent="1" source="66" target="68" edge="1">
                    <mxGeometry relative="1" as="geometry"/>
                </mxCell>
                <mxCell id="66" value="Hierarchical config" style="whiteSpace=wrap;html=1;strokeWidth=2;labelBackgroundColor=none;fillColor=#008a00;strokeColor=#005700;fontColor=#ffffff;" parent="1" vertex="1">
                    <mxGeometry x="-1025" y="260" width="200" height="60" as="geometry"/>
                </mxCell>
                <mxCell id="68" value="Registory Category Taxonomy for it" style="whiteSpace=wrap;html=1;strokeWidth=2;labelBackgroundColor=none;fillColor=#008a00;strokeColor=#005700;fontColor=#ffffff;" parent="1" vertex="1">
                    <mxGeometry x="-1315" y="260" width="240" height="60" as="geometry"/>
                </mxCell>
                <mxCell id="118" style="edgeStyle=orthogonalEdgeStyle;html=1;fontColor=#FFFFFF;" parent="1" source="74" target="117" edge="1">
                    <mxGeometry relative="1" as="geometry"/>
                </mxCell>
                <mxCell id="74" value="Design" style="whiteSpace=wrap;html=1;strokeWidth=2;labelBackgroundColor=none;fillColor=#008a00;fontColor=#ffffff;strokeColor=#005700;" parent="1" vertex="1">
                    <mxGeometry x="-580" y="470" width="200" height="60" as="geometry"/>
                </mxCell>
                <mxCell id="79" style="edgeStyle=none;html=1;fontColor=#FFFFFF;" parent="1" source="76" target="78" edge="1">
                    <mxGeometry relative="1" as="geometry"/>
                </mxCell>
                <mxCell id="76" value="Structure" style="whiteSpace=wrap;html=1;strokeWidth=2;labelBackgroundColor=none;fontColor=#ffffff;fillColor=#008a00;strokeColor=#005700;" parent="1" vertex="1">
                    <mxGeometry x="-580" y="670" width="200" height="60" as="geometry"/>
                </mxCell>
                <mxCell id="85" style="edgeStyle=none;html=1;fontColor=#FFFFFF;" parent="1" source="78" target="88" edge="1">
                    <mxGeometry relative="1" as="geometry">
                        <mxPoint x="-1140" y="700" as="targetPoint"/>
                    </mxGeometry>
                </mxCell>
                <mxCell id="78" value="shortcode_atts(arr(&quot;categories&quot; =&amp;gt; &quot;&quot;))" style="whiteSpace=wrap;html=1;strokeWidth=2;labelBackgroundColor=none;fontColor=#ffffff;fillColor=#008a00;strokeColor=#005700;" parent="1" vertex="1">
                    <mxGeometry x="-890" y="670" width="250" height="60" as="geometry"/>
                </mxCell>
                <mxCell id="91" style="edgeStyle=none;html=1;fontColor=#FFFFFF;" parent="1" source="88" target="90" edge="1">
                    <mxGeometry relative="1" as="geometry"/>
                </mxCell>
                <mxCell id="88" value="check &quot;books&quot; and &quot;book-category&quot; existance" style="whiteSpace=wrap;html=1;strokeWidth=2;labelBackgroundColor=none;fontColor=#ffffff;fillColor=#008a00;strokeColor=#005700;" parent="1" vertex="1">
                    <mxGeometry x="-1240" y="670" width="280" height="60" as="geometry"/>
                </mxCell>
                <mxCell id="95" value="" style="edgeStyle=none;html=1;fontColor=#FFFFFF;" parent="1" source="90" target="94" edge="1">
                    <mxGeometry relative="1" as="geometry"/>
                </mxCell>
                <mxCell id="90" value="args:&lt;br&gt;post_type: &quot;books&quot;&lt;br&gt;posts_per_page: 10" style="whiteSpace=wrap;html=1;strokeWidth=2;labelBackgroundColor=none;fontColor=#ffffff;fillColor=#008a00;strokeColor=#005700;" parent="1" vertex="1">
                    <mxGeometry x="-1470" y="660" width="160" height="80" as="geometry"/>
                </mxCell>
                <mxCell id="116" style="edgeStyle=orthogonalEdgeStyle;html=1;fontColor=#FFFFFF;" parent="1" source="92" target="115" edge="1">
                    <mxGeometry relative="1" as="geometry"/>
                </mxCell>
                <mxCell id="92" value="Pagination" style="whiteSpace=wrap;html=1;strokeWidth=2;labelBackgroundColor=none;fontColor=#FFFFFF;" parent="1" vertex="1">
                    <mxGeometry x="-1070" y="470" width="210" height="60" as="geometry"/>
                </mxCell>
                <mxCell id="97" style="edgeStyle=none;html=1;fontColor=#FFFFFF;" parent="1" source="94" target="107" edge="1">
                    <mxGeometry relative="1" as="geometry">
                        <mxPoint x="-1805" y="700" as="targetPoint"/>
                    </mxGeometry>
                </mxCell>
                <mxCell id="110" value="continue" style="edgeLabel;html=1;align=center;verticalAlign=middle;resizable=0;points=[];fontColor=#FFFFFF;" parent="97" vertex="1" connectable="0">
                    <mxGeometry x="-0.3158" y="2" relative="1" as="geometry">
                        <mxPoint x="-9" y="-12" as="offset"/>
                    </mxGeometry>
                </mxCell>
                <mxCell id="104" style="edgeStyle=none;html=1;fontColor=#FFFFFF;" parent="1" source="94" target="101" edge="1">
                    <mxGeometry relative="1" as="geometry"/>
                </mxCell>
                <mxCell id="109" value="true" style="edgeLabel;html=1;align=center;verticalAlign=middle;resizable=0;points=[];fontColor=#FFFFFF;" parent="104" vertex="1" connectable="0">
                    <mxGeometry x="0.468" relative="1" as="geometry">
                        <mxPoint y="-10" as="offset"/>
                    </mxGeometry>
                </mxCell>
                <mxCell id="94" value="!is_null(attr_categories)" style="rhombus;whiteSpace=wrap;html=1;fontColor=#ffffff;strokeWidth=2;labelBackgroundColor=none;fillColor=#008a00;strokeColor=#005700;" parent="1" vertex="1">
                    <mxGeometry x="-1760" y="635" width="210" height="130" as="geometry"/>
                </mxCell>
                <mxCell id="108" style="edgeStyle=orthogonalEdgeStyle;html=1;fontColor=#FFFFFF;" parent="1" source="99" target="107" edge="1">
                    <mxGeometry relative="1" as="geometry"/>
                </mxCell>
                <mxCell id="99" value="additional args:&lt;br&gt;taxonomy: &quot;book-category&quot;&lt;br&gt;field: &quot;slug&quot;&lt;br&gt;terms: categories" style="whiteSpace=wrap;html=1;strokeWidth=2;labelBackgroundColor=none;fontColor=#ffffff;fillColor=#008a00;strokeColor=#005700;" parent="1" vertex="1">
                    <mxGeometry x="-1750" y="1000" width="190" height="100" as="geometry"/>
                </mxCell>
                <mxCell id="106" style="edgeStyle=none;html=1;fontColor=#FFFFFF;" parent="1" source="100" target="99" edge="1">
                    <mxGeometry relative="1" as="geometry"/>
                </mxCell>
                <mxCell id="100" value="sanitize categories&amp;nbsp;text field" style="whiteSpace=wrap;html=1;strokeWidth=2;labelBackgroundColor=none;fontColor=#ffffff;fillColor=#008a00;strokeColor=#005700;" parent="1" vertex="1">
                    <mxGeometry x="-1745" y="900" width="180" height="60" as="geometry"/>
                </mxCell>
                <mxCell id="105" style="edgeStyle=none;html=1;fontColor=#FFFFFF;" parent="1" source="101" target="100" edge="1">
                    <mxGeometry relative="1" as="geometry"/>
                </mxCell>
                <mxCell id="101" value="explode(&quot;,&quot;, categories)" style="whiteSpace=wrap;html=1;strokeWidth=2;labelBackgroundColor=none;fontColor=#ffffff;fillColor=#008a00;strokeColor=#005700;" parent="1" vertex="1">
                    <mxGeometry x="-1745" y="800" width="180" height="60" as="geometry"/>
                </mxCell>
                <mxCell id="112" style="edgeStyle=orthogonalEdgeStyle;html=1;fontColor=#FFFFFF;" parent="1" source="107" target="111" edge="1">
                    <mxGeometry relative="1" as="geometry"/>
                </mxCell>
                <mxCell id="107" value="WP_Query" style="whiteSpace=wrap;html=1;strokeWidth=2;labelBackgroundColor=none;fontColor=#ffffff;fillColor=#008a00;strokeColor=#005700;" parent="1" vertex="1">
                    <mxGeometry x="-2000" y="670" width="180" height="60" as="geometry"/>
                </mxCell>
                <mxCell id="114" style="edgeStyle=orthogonalEdgeStyle;html=1;fontColor=#FFFFFF;" parent="1" source="111" target="113" edge="1">
                    <mxGeometry relative="1" as="geometry"/>
                </mxCell>
                <mxCell id="111" value="Design" style="whiteSpace=wrap;html=1;strokeWidth=2;labelBackgroundColor=none;fontColor=#ffffff;fillColor=#008a00;strokeColor=#005700;" parent="1" vertex="1">
                    <mxGeometry x="-2240" y="670" width="180" height="60" as="geometry"/>
                </mxCell>
                <mxCell id="124" style="edgeStyle=none;html=1;fontColor=#FFFFFF;" parent="1" source="113" target="123" edge="1">
                    <mxGeometry relative="1" as="geometry"/>
                </mxCell>
                <mxCell id="113" value="wp_reset_postdata" style="whiteSpace=wrap;html=1;strokeWidth=2;labelBackgroundColor=none;fontColor=#ffffff;fillColor=#008a00;strokeColor=#005700;" parent="1" vertex="1">
                    <mxGeometry x="-2470" y="670" width="180" height="60" as="geometry"/>
                </mxCell>
                <mxCell id="143" style="edgeStyle=none;html=1;fontColor=#FFFFFF;" edge="1" parent="1" source="115" target="142">
                    <mxGeometry relative="1" as="geometry"/>
                </mxCell>
                <mxCell id="115" value="Filter bar" style="whiteSpace=wrap;html=1;strokeWidth=2;labelBackgroundColor=none;fontColor=#ffffff;fillColor=#008a00;strokeColor=#005700;" parent="1" vertex="1">
                    <mxGeometry x="-1320" y="470" width="210" height="60" as="geometry"/>
                </mxCell>
                <mxCell id="119" style="edgeStyle=orthogonalEdgeStyle;html=1;fontColor=#FFFFFF;" parent="1" source="117" target="92" edge="1">
                    <mxGeometry relative="1" as="geometry"/>
                </mxCell>
                <mxCell id="141" style="edgeStyle=none;html=1;fontColor=#FFFFFF;" parent="1" source="117" target="140" edge="1">
                    <mxGeometry relative="1" as="geometry"/>
                </mxCell>
                <mxCell id="117" value="Item Block" style="whiteSpace=wrap;html=1;strokeWidth=2;labelBackgroundColor=none;fillColor=#008a00;strokeColor=#005700;fontColor=#ffffff;" parent="1" vertex="1">
                    <mxGeometry x="-820" y="470" width="200" height="60" as="geometry"/>
                </mxCell>
                <mxCell id="122" value="AJAX" style="whiteSpace=wrap;html=1;strokeWidth=2;labelBackgroundColor=none;fontColor=#ffffff;fillColor=#008a00;strokeColor=#005700;" parent="1" vertex="1">
                    <mxGeometry x="-580" y="850" width="200" height="60" as="geometry"/>
                </mxCell>
                <mxCell id="123" value="return html str design" style="whiteSpace=wrap;html=1;strokeWidth=2;labelBackgroundColor=none;fontColor=#ffffff;fillColor=#008a00;strokeColor=#005700;" parent="1" vertex="1">
                    <mxGeometry x="-2700" y="670" width="180" height="60" as="geometry"/>
                </mxCell>
                <mxCell id="132" value="Add Excerpt" style="whiteSpace=wrap;html=1;strokeWidth=2;labelBackgroundColor=none;fillColor=#008a00;strokeColor=#005700;fontColor=#ffffff;" parent="1" vertex="1">
                    <mxGeometry x="-540" y="50" width="160" height="60" as="geometry"/>
                </mxCell>
                <mxCell id="134" value="register custom field &quot;publication year&quot;&lt;br&gt;+ autofull check" style="whiteSpace=wrap;html=1;strokeWidth=2;labelBackgroundColor=none;fillColor=#008a00;strokeColor=#005700;fontColor=#ffffff;" parent="1" vertex="1">
                    <mxGeometry x="-780" y="120" width="120" height="60" as="geometry"/>
                </mxCell>
                <mxCell id="140" value="No Book Found" style="whiteSpace=wrap;html=1;strokeWidth=2;labelBackgroundColor=none;fillColor=#008a00;strokeColor=#005700;fontColor=#ffffff;" parent="1" vertex="1">
                    <mxGeometry x="-820" y="380" width="200" height="60" as="geometry"/>
                </mxCell>
                <mxCell id="142" value="Multiple Filters" style="whiteSpace=wrap;html=1;strokeWidth=2;labelBackgroundColor=none;" vertex="1" parent="1">
                    <mxGeometry x="-1320" y="550" width="210" height="60" as="geometry"/>
                </mxCell>
            </root>
        </mxGraphModel>
    </diagram>
</mxfile>